<svg width="19" height="20" viewBox="0 0 19 20" fill="none" xmlns="http://www.w3.org/2000/svg">
<g clip-path="url(#clip0)">
<path d="M9.39114 6.69094C10.8795 6.59991 12.0013 5.14084 11.8968 3.43201C11.7922 1.72318 10.501 0.411694 9.01265 0.502724C7.52431 0.593754 6.40251 2.05283 6.50702 3.76166C6.61154 5.47049 7.9028 6.78197 9.39114 6.69094Z" stroke="black" stroke-width="0.75" stroke-miterlimit="10"/>
<path d="M4.80001 18.5C4.80001 18.5 4.70001 15.1 5.00001 13.6C5.20001 12.1 6.00001 11.2 5.70001 10.3C5.70001 10.3 4.90001 9.1 4.30001 8.5C3.70001 7.9 1.20001 4.8 1.20001 4.8C1.20001 4.8 0.700005 4.1 1.20001 3.7C1.70001 3.4 2.30001 3.4 2.50001 3.6C2.70001 3.8 4.70001 5.9 4.70001 5.9C4.70001 5.9 6.70001 8 8.70001 8C10.7 8 11.7 7.4 12 7.2C12.2 7 13.2 6.4 13.7 6C14.2 5.6 16.2 4 16.2 4C16.2 4 16.9 3.3 17.3 3.5C17.3 3.5 17.8 3.6 18 4C18.2 4.4 17.4 5.2 17.4 5.2L15.2 7.4C15.2 7.4 12.9 10 12.8 11.7C12.8 11.7 12.6 13.5 13 15.3C13.4 17.1 14 18.4 14 18.4" stroke="black" stroke-width="0.75" stroke-miterlimit="10"/>
<path d="M17.1 5.4L16.6 5.9C17.5 7.3 18 8.9 18 10.5C18 12.9 17 14.9 15.5 16.5L16 17C17.7 15.3 18.8 12.9 18.8 10.4C18.6 8.7 18 6.9 17.1 5.4Z" fill="black"/>
<path d="M11.5 2.3C13.1 2.7 14.5 3.5 15.5 4.6L16 4.1C14.7 2.7 12.9 1.8 11 1.4L11.5 2.3V2.3Z" fill="black"/>
<path d="M7.09999 1.6C5.49999 2 3.99999 2.9 2.89999 4L3.39999 4.5C4.29999 3.6 5.49999 2.9 6.79999 2.4L7.09999 1.6V1.6Z" fill="black"/>
<path d="M14.1 17.8C12.7 18.7 11.1 19.3 9.4 19.3C4.7 19.3 0.8 15.4 0.8 10.7C0.8 9 1.3 7.5 2 6.1L1.5 5.5C0.6 7 0 8.7 0 10.5C0 15.6 4.1 19.8 9.3 19.8C11.2 19.8 12.9 19.2 14.3 18.3L14.1 17.8V17.8Z" fill="black"/>
</g>
<defs>
<clipPath id="clip0">
<rect width="18.8" height="20" fill="white"/>
</clipPath>
</defs>
</svg>
